<svg width="24" height="24" viewBox="0 0 24 24" fill="none" xmlns="http://www.w3.org/2000/svg">
<g clip-path="url(#clip0)">
<path fill-rule="evenodd" clip-rule="evenodd" d="M6.70711 5.29106C6.31658 4.90054 5.68342 4.90054 5.29289 5.29106C4.90237 5.68159 4.90237 6.31475 5.29289 6.70528L10.5862 11.9986L5.29314 17.2916C4.90262 17.6821 4.90262 18.3153 5.29314 18.7058C5.68367 19.0964 6.31683 19.0964 6.70735 18.7058L12.0004 13.4128L17.2929 18.7053C17.6834 19.0958 18.3166 19.0958 18.7071 18.7053C19.0976 18.3148 19.0976 17.6816 18.7071 17.2911L13.4146 11.9986L18.7074 6.70583C19.0979 6.31531 19.0979 5.68214 18.7074 5.29162C18.3168 4.90109 17.6837 4.90109 17.2931 5.29162L12.0004 10.5844L6.70711 5.29106Z" fill="white"/>
</g>
<defs>
<clipPath id="clip0">
<rect width="24" height="24" fill="white"/>
</clipPath>
</defs>
</svg>
