<svg width="24" height="24" viewBox="0 0 24 24" fill="none" xmlns="http://www.w3.org/2000/svg">
<g clip-path="url(#clip0)">
<path fill-rule="evenodd" clip-rule="evenodd" d="M4 1C2.34315 1 1 2.34315 1 4V8C1 9.65685 2.34315 11 4 11H8C9.65685 11 11 9.65685 11 8V4C11 2.34315 9.65685 1 8 1H4ZM3 4C3 3.44772 3.44772 3 4 3H8C8.55228 3 9 3.44772 9 4V8C9 8.55228 8.55228 9 8 9H4C3.44772 9 3 8.55228 3 8V4ZM4 13C2.34315 13 1 14.3431 1 16V20C1 21.6569 2.34315 23 4 23H8C9.65685 23 11 21.6569 11 20V16C11 14.3431 9.65685 13 8 13H4ZM3 16C3 15.4477 3.44772 15 4 15H8C8.55228 15 9 15.4477 9 16V20C9 20.5523 8.55228 21 8 21H4C3.44772 21 3 20.5523 3 20V16ZM13 4C13 2.34315 14.3431 1 16 1H20C21.6569 1 23 2.34315 23 4V8C23 9.65685 21.6569 11 20 11H16C14.3431 11 13 9.65685 13 8V4ZM16 3C15.4477 3 15 3.44772 15 4V8C15 8.55228 15.4477 9 16 9H20C20.5523 9 21 8.55228 21 8V4C21 3.44772 20.5523 3 20 3H16ZM16 13C14.3431 13 13 14.3431 13 16V20C13 21.6569 14.3431 23 16 23H20C21.6569 23 23 21.6569 23 20V16C23 14.3431 21.6569 13 20 13H16ZM15 16C15 15.4477 15.4477 15 16 15H20C20.5523 15 21 15.4477 21 16V20C21 20.5523 20.5523 21 20 21H16C15.4477 21 15 20.5523 15 20V16Z" fill="white"/>
</g>
<defs>
<clipPath id="clip0">
<rect width="24" height="24" fill="white"/>
</clipPath>
</defs>
</svg>
