<svg width="24" height="24" viewBox="0 0 24 24" fill="none" xmlns="http://www.w3.org/2000/svg">
<g clip-path="url(#clip0)">
<path fill-rule="evenodd" clip-rule="evenodd" d="M9.99999 7C10.5523 7 11 6.55228 11 6C11 5.44772 10.5523 5 9.99999 5H4C3.44772 5 3 5.44772 3 6C3 6.55228 3.44772 7 4 7H9.99999ZM21 12C21 12.5523 20.5523 13 20 13L4.00002 13C3.44773 13 3.00002 12.5523 3.00002 12C3.00002 11.4477 3.44773 11 4.00002 11L20 11C20.5523 11 21 11.4477 21 12ZM15 18C15 18.5523 14.5523 19 14 19H4.00001C3.44772 19 3.00001 18.5523 3.00001 18C3.00001 17.4477 3.44772 17 4.00001 17H14C14.5523 17 15 17.4477 15 18Z" fill="white"/>
</g>
<defs>
<clipPath id="clip0">
<rect width="24" height="24" fill="white"/>
</clipPath>
</defs>
</svg>
