<svg width="24" height="24" viewBox="0 0 24 24" fill="none" xmlns="http://www.w3.org/2000/svg">
<path fill-rule="evenodd" clip-rule="evenodd" d="M1 6C1 4.34315 2.34315 3 4 3H6C7.65685 3 9 4.34315 9 6V8C9 9.65685 7.65685 11 6 11H4C2.34315 11 1 9.65685 1 8V6ZM4 5C3.44772 5 3 5.44772 3 6V8C3 8.55228 3.44772 9 4 9H6C6.55228 9 7 8.55228 7 8V6C7 5.44772 6.55228 5 6 5H4Z" fill="white"/>
<path fill-rule="evenodd" clip-rule="evenodd" d="M15 6C15 4.34315 16.3431 3 18 3H20C21.6569 3 23 4.34315 23 6V8C23 9.65685 21.6569 11 20 11H18C16.3431 11 15 9.65685 15 8V6ZM18 5C17.4477 5 17 5.44772 17 6V8C17 8.55228 17.4477 9 18 9H20C20.5523 9 21 8.55228 21 8V6C21 5.44772 20.5523 5 20 5H18Z" fill="white"/>
<path fill-rule="evenodd" clip-rule="evenodd" d="M13 18C13 16.3431 14.3431 15 16 15H18C19.6569 15 21 16.3431 21 18V20C21 21.6569 19.6569 23 18 23H16C14.3431 23 13 21.6569 13 20V18ZM16 17C15.4477 17 15 17.4477 15 18V20C15 20.5523 15.4477 21 16 21H18C18.5523 21 19 20.5523 19 20V18C19 17.4477 18.5523 17 18 17H16Z" fill="white"/>
<path fill-rule="evenodd" clip-rule="evenodd" d="M17 8H7V6H17V8Z" fill="white"/>
<path fill-rule="evenodd" clip-rule="evenodd" d="M13.9998 18L5.99985 10L7.41406 8.58582L15.4141 16.5858L13.9998 18Z" fill="white"/>
</svg>
