<svg width="24" height="24" viewBox="0 0 24 24" fill="none" xmlns="http://www.w3.org/2000/svg">
<g clip-path="url(#clip0)">
<path fill-rule="evenodd" clip-rule="evenodd" d="M16.8533 10.4267C16.8533 13.976 13.976 16.8533 10.4267 16.8533C6.87731 16.8533 4 13.976 4 10.4267C4 6.87731 6.87731 4 10.4267 4C13.976 4 16.8533 6.87731 16.8533 10.4267ZM17.0497 15.6372C18.1793 14.2033 18.8533 12.3937 18.8533 10.4267C18.8533 5.77274 15.0806 2 10.4267 2C5.77274 2 2 5.77274 2 10.4267C2 15.0806 5.77274 18.8533 10.4267 18.8533C12.3937 18.8533 14.2033 18.1793 15.6372 17.0497C15.648 17.0617 15.6592 17.0735 15.6708 17.085L20.2528 21.667C20.6433 22.0575 21.2765 22.0575 21.667 21.667C22.0575 21.2765 22.0575 20.6433 21.667 20.2528L17.085 15.6708C17.0735 15.6592 17.0617 15.648 17.0497 15.6372Z" fill="white"/>
</g>
<defs>
<clipPath id="clip0">
<rect width="24" height="24" fill="white"/>
</clipPath>
</defs>
</svg>
