<svg width="24" height="24" viewBox="0 0 24 24" fill="none" xmlns="http://www.w3.org/2000/svg">
<g clip-path="url(#clip0)">
<path fill-rule="evenodd" clip-rule="evenodd" d="M20 4C20 3.44772 19.5523 3 19 3C18.4477 3 18 3.44772 18 4L18 20C18 20.5523 18.4477 21 19 21C19.5523 21 20 20.5523 20 20V4ZM15 10C15 9.44772 14.5523 9 14 9C13.4477 9 13 9.44772 13 10L13 20C13 20.5523 13.4477 21 14 21C14.5523 21 15 20.5523 15 20L15 10ZM9 6C9.55228 6 10 6.44772 10 7L10 20C10 20.5523 9.55229 21 9 21C8.44772 21 8 20.5523 8 20L8 7C8 6.44772 8.44772 6 9 6ZM5 13C5 12.4477 4.55228 12 4 12C3.44772 12 3 12.4477 3 13V20C3 20.5523 3.44772 21 4 21C4.55229 21 5 20.5523 5 20L5 13Z" fill="white"/>
</g>
<defs>
<clipPath id="clip0">
<rect width="24" height="24" fill="white"/>
</clipPath>
</defs>
</svg>
