<svg width="24" height="24" viewBox="0 0 24 24" fill="none" xmlns="http://www.w3.org/2000/svg">
<path fill-rule="evenodd" clip-rule="evenodd" d="M7 4C7 2.89543 7.89543 2 9 2H15C16.1046 2 17 2.89543 17 4V6C17 7.10457 16.1046 8 15 8H9C7.89543 8 7 7.10457 7 6V4ZM15 4H9V6H15V4Z" fill="white"/>
<path fill-rule="evenodd" clip-rule="evenodd" d="M7 4.12598C5.27477 4.57002 4 6.13612 4 7.99996V19C4 21.2091 5.79086 23 8 23H16C18.2091 23 20 21.2091 20 19V7.99996C20 6.13612 18.7252 4.57002 17 4.12598V6.26752C17.5978 6.61333 18 7.25968 18 7.99996V19C18 20.1045 17.1046 21 16 21H8C6.89543 21 6 20.1045 6 19V7.99996C6 7.25968 6.4022 6.61333 7 6.26752V4.12598Z" fill="white"/>
<path fill-rule="evenodd" clip-rule="evenodd" d="M8.28074 12.8269C8.67795 12.4432 9.32195 12.4432 9.71916 12.8269L10.7842 13.8558L13.6334 11.1033C14.0307 10.7196 14.6747 10.7196 15.0719 11.1033C15.4691 11.487 15.4691 12.1091 15.0719 12.4929L12.2226 15.2454C11.4282 16.0128 10.1402 16.0128 9.34576 15.2454L8.28074 14.2165C7.88353 13.8328 7.88353 13.2107 8.28074 12.8269Z" fill="white"/>
</svg>
