<svg width="24" height="24" viewBox="0 0 24 24" fill="none" xmlns="http://www.w3.org/2000/svg">
<path fill-rule="evenodd" clip-rule="evenodd" d="M8 7C8 4.79086 9.79086 3 12 3C14.2091 3 16 4.79086 16 7C16 9.20914 14.2091 11 12 11C9.79086 11 8 9.20914 8 7ZM12 1C8.68629 1 6 3.68629 6 7C6 10.3137 8.68629 13 12 13C15.3137 13 18 10.3137 18 7C18 3.68629 15.3137 1 12 1ZM12 14C6.73066 14 2 17.3578 2 22C2 22.5523 2.44772 23 3 23C3.55228 23 4 22.5523 4 22C4 18.9022 7.33686 16 12 16C16.6631 16 20 18.9022 20 22C20 22.5523 20.4477 23 21 23C21.5523 23 22 22.5523 22 22C22 17.3578 17.2693 14 12 14Z" fill="white"/>
</svg>
