<svg width="56" height="56" viewBox="0 0 56 56" fill="none" xmlns="http://www.w3.org/2000/svg">
<rect width="56" height="56" rx="28" fill="white"/>
<path fill-rule="evenodd" clip-rule="evenodd" d="M51.3332 28.1418C51.3332 15.1778 40.8855 4.66663 27.9998 4.66663C15.1142 4.66663 4.6665 15.1778 4.6665 28.1418C4.6665 39.858 13.198 49.5702 24.3544 51.3333V34.9293H18.4283V28.1418H24.3544V22.9687C24.3544 17.0858 27.8391 13.8341 33.1679 13.8341C35.7207 13.8341 38.3917 14.293 38.3917 14.293V20.0702H35.4483C32.551 20.0702 31.6453 21.8793 31.6453 23.7379V28.1417H38.1159L37.0823 34.9291H31.6451V51.3331C42.8015 49.5733 51.3332 39.8612 51.3332 28.1418Z" fill="#0078FF"/>
</svg>
