<svg width="264" height="44" viewBox="0 0 264 44" fill="none" xmlns="http://www.w3.org/2000/svg">
<path d="M18.6322 24.4774H8.36363V35H1.99566V8.58472H19.6663V13.5013H8.36363V19.579H18.6322V24.4774Z" fill="#1EA5FC"/>
<path d="M28.534 35H22.42V13.8641H28.534V35ZM51.2845 35H45.1705L38.0406 22.6995V35H31.9085V13.8641H38.0406L45.1705 26.1647V13.8641H51.2845V35ZM54.2236 35V13.8641H61.7889C63.7967 13.8641 65.617 14.3056 67.2498 15.1885C68.8826 16.0594 70.1586 17.281 71.0778 18.8533C71.997 20.4135 72.4566 22.1492 72.4566 24.0602V24.804C72.4566 26.7029 72.0091 28.4325 71.1141 29.9927C70.2191 31.5409 68.9733 32.7624 67.3768 33.6575C65.7803 34.5404 64.0083 34.9879 62.0611 35H54.2236ZM60.3557 18.5812V30.3011H61.9704C63.4822 30.3011 64.5708 29.9201 65.236 29.1582C65.9012 28.3962 66.252 27.0778 66.2882 25.2031V24.042C66.2882 22.0584 65.9496 20.6615 65.2723 19.8511C64.607 19.0408 63.5306 18.6174 62.0429 18.5812H60.3557Z" fill="white"/>
<path d="M97.0434 13.5013H89.1152V35H82.7472V13.5013H74.9642V8.58472H97.0434V13.5013Z" fill="#1EA5FC"/>
<path d="M118.643 35H112.547V27.0174H105.38V35H99.2483V13.8641H105.38V22.3003H112.547V13.8641H118.643V35ZM136.041 26.4368H127.732V30.3011H137.583V35H121.6V13.8641H137.674V18.5812H127.732V21.7198H136.041V26.4368ZM165.831 24.4774H155.562V35H149.194V8.58472H166.865V13.5013H155.562V19.579H165.831V24.4774Z" fill="white"/>
<circle cx="182.845" cy="19.2241" r="9.73333" stroke="#1EA5FC" stroke-width="4"/>
<line x1="190.826" y1="27.5092" x2="196.998" y2="33.6807" stroke="#1EA5FC" stroke-width="4" stroke-linecap="round"/>
<path d="M220.233 27.6161C220.16 29.9504 219.241 31.813 217.475 33.2039C215.709 34.5948 213.424 35.2903 210.617 35.2903C207.509 35.2903 205.09 34.3711 203.361 32.5326C201.643 30.6942 200.784 28.0817 200.784 24.6951V24.0964C200.784 21.9677 201.183 20.1051 201.982 18.5086C202.78 16.9 203.911 15.6723 205.374 14.8257C206.838 13.9791 208.531 13.5557 210.454 13.5557C213.321 13.5557 215.619 14.2633 217.348 15.6784C219.09 17.0814 220.064 18.9984 220.269 21.4295H214.155C214.179 20.4377 213.865 19.6637 213.212 19.1073C212.559 18.5509 211.64 18.2727 210.454 18.2727C208.277 18.2727 207.11 19.9056 206.953 23.1712L206.935 24.7859C206.935 26.8662 207.207 28.3538 207.751 29.2489C208.295 30.1439 209.251 30.5914 210.617 30.5914C213 30.5914 214.167 29.5996 214.119 27.6161H220.233ZM240.788 13.8641V27.3984C240.788 29.8899 239.99 31.8311 238.393 33.222C236.797 34.6009 234.553 35.2903 231.663 35.2903C228.82 35.2903 226.583 34.5948 224.95 33.2039C223.329 31.813 222.507 29.9201 222.483 27.5253V13.8641H228.633V27.4165C228.633 28.5534 228.887 29.3698 229.395 29.8657C229.903 30.3495 230.659 30.5914 231.663 30.5914C232.691 30.5914 233.441 30.3495 233.912 29.8657C234.396 29.3698 234.638 28.5534 234.638 27.4165V13.8641H240.788ZM255.484 29.2307C255.484 28.5897 255.205 28.0757 254.649 27.6886C254.093 27.3016 253.113 26.9448 251.71 26.6182C250.319 26.2917 249.146 25.947 248.19 25.5841C247.247 25.2213 246.467 24.7919 245.85 24.296C245.233 23.788 244.78 23.1833 244.489 22.4818C244.199 21.7803 244.054 20.9336 244.054 19.9418C244.054 18.7203 244.405 17.6257 245.106 16.6581C245.82 15.6784 246.805 14.9225 248.063 14.3903C249.333 13.846 250.736 13.5739 252.272 13.5739C255.03 13.5739 257.225 14.1726 258.858 15.37C260.491 16.5553 261.307 18.1699 261.307 20.214H255.175C255.175 19.5609 254.903 18.9984 254.359 18.5267C253.827 18.055 253.149 17.8192 252.327 17.8192C251.565 17.8192 250.948 18.0067 250.476 18.3816C250.005 18.7444 249.769 19.1738 249.769 19.6697C249.769 20.214 250.005 20.6494 250.476 20.976C250.96 21.3025 251.807 21.623 253.016 21.9375C256.028 22.5664 258.144 23.4312 259.366 24.5319C260.6 25.6204 261.217 27.1202 261.217 29.0312C261.217 30.9663 260.461 32.4964 258.949 33.6212C257.437 34.7339 255.363 35.2903 252.726 35.2903C250.9 35.2903 249.267 35.006 247.827 34.4376C246.388 33.857 245.275 33.0346 244.489 31.9702C243.715 30.8938 243.328 29.6117 243.328 28.124H249.478C249.478 29.2126 249.757 29.9746 250.313 30.41C250.881 30.8454 251.825 31.0631 253.143 31.0631C253.881 31.0631 254.455 30.8998 254.867 30.5733C255.278 30.2346 255.484 29.7871 255.484 29.2307Z" fill="white"/>
</svg>
