<svg width="56" height="56" viewBox="0 0 56 56" fill="none" xmlns="http://www.w3.org/2000/svg">
<rect width="56" height="56" rx="28" fill="white"/>
<path d="M28.3813 16.5514C31.958 16.5514 34.3706 18.0656 35.7464 19.3308L41.122 14.1871C37.8204 11.1796 33.5241 9.33374 28.3813 9.33374C20.9317 9.33374 14.4979 13.5233 11.3657 19.621L17.5243 24.3085C19.0693 19.8077 23.3444 16.5514 28.3813 16.5514Z" fill="#EA4335"/>
<path d="M46.6674 28.4152C46.6674 26.8804 46.5405 25.7605 46.2652 24.599H28.3818V31.5263H38.8792C38.6674 33.2477 37.5246 35.8404 34.9849 37.5825L40.9954 42.1456C44.5934 38.8892 46.6674 34.0981 46.6674 28.4152Z" fill="#4285F4"/>
<path d="M17.5456 31.6921C17.1434 30.5307 16.9106 29.2861 16.9106 28.0003C16.9106 26.7143 17.1434 25.4699 17.5244 24.3084L11.3656 19.621C10.0748 22.1514 9.33398 24.9928 9.33398 28.0003C9.33398 31.0076 10.0748 33.8492 11.3656 36.3794L17.5456 31.6921Z" fill="#FBBC05"/>
<path d="M28.3812 46.6669C33.524 46.6669 37.8414 45.0077 40.9949 42.1454L34.9843 37.5825C33.3759 38.6817 31.2171 39.4492 28.3812 39.4492C23.3443 39.4492 19.0692 36.1928 17.5454 31.6921L11.3867 36.3794C14.5189 42.4773 20.9315 46.6669 28.3812 46.6669Z" fill="#34A853"/>
</svg>
